<svg width="800" height="200" viewBox="0 0 800 200" fill="none" xmlns="http://www.w3.org/2000/svg">
<defs>
<linearGradient id="mathhook_grad_h" x1="50" y1="20" x2="150" y2="180" gradientUnits="userSpaceOnUse">
<stop offset="0%" stop-color="#06B6D4"/>
<stop offset="100%" stop-color="#E64524"/>
</linearGradient>
</defs>
<g transform="translate(20, 0) scale(0.4)">
<path d="M360.5,120 C345,80 310,50 256,50 C180,50 140,110 140,200 C140,270 165,310 195,350 C220,385 250,415 280,435 C310,455 350,465 385,445 C415,425 430,385 420,345 C415,320 395,300 370,300 C345,300 325,320 320,345 C315,375 300,395 275,410 C245,425 205,400 185,360 C160,315 140,260 140,190 C140,130 170,100 230,100 C280,100 315,125 325,165 C330,190 350,210 375,210 C400,210 420,190 415,165 C410,120 390,160 360.5,120 Z" fill="url(#mathhook_grad_h)"/>
<circle cx="370" cy="345" r="25" fill="#E64524"/>
</g>

<path d="M240 70 L265 130 L290 70 L307 70 L307 145 L292 145 L292 90 L270 145 L260 145 L238 90 L238 145 L223 145 L223 70 L240 70 Z" fill="white"/> <path d="M335 145 L328 145 L324 133 L311 133 L307 145 L292 145 L310 95 L325 95 L343 145 Z M317 116 L314 122 L321 122 L317 110 L317 116 Z" fill="white"/> <path d="M336 145 L330 145 L326 130 L314 130 L310 145 L295 145 L313 95 L327 95 L345 145 H336 Z M320 118 L323 118 L320 108 L317 118 H320 Z" fill="white" transform="translate(10,0)"/> <path d="M360 85 H345 V70 H390 V85 H375 V145 H360 V85 Z" fill="white"/> <path d="M400 70 V145 H415 V115 H435 V145 H450 V70 H435 V100 H415 V70 H400 Z" fill="white"/> <g fill="#E64524">
<path d="M470 70 V145 H485 V115 H505 V145 H520 V70 H505 V100 H485 V70 H470 Z"/> <path d="M535 107.5 C535 85 550 70 570 70 C590 70 605 85 605 107.5 C605 130 590 145 570 145 C550 145 535 130 535 107.5 Z M588 107.5 C588 95 580 85 570 85 C560 85 552 95 552 107.5 C552 120 560 130 570 130 C580 130 588 120 588 107.5 Z"/> <path d="M615 107.5 C615 85 630 70 650 70 C670 70 685 85 685 107.5 C685 130 670 145 650 145 C630 145 615 130 615 107.5 Z M668 107.5 C668 95 660 85 650 85 C640 85 632 95 632 107.5 C632 120 640 130 650 130 C660 130 668 120 668 107.5 Z"/> <path d="M700 70 V145 H715 V115 L735 145 H755 L730 110 L753 70 H735 L715 105 V70 H700 Z"/> </g>
</svg>